<svg width="200" height="200" viewBox="0 0 200 200" xmlns="http://www.w3.org/2000/svg">
  <defs>
    <pattern id="cat-pattern" x="0" y="0" width="100" height="100" patternUnits="userSpaceOnUse">
      <path d="M50 25 C45 15, 35 10, 25 15 C15 20, 10 30, 15 40 C20 50, 30 55, 40 50 C50 45, 55 35, 50 25" fill="rgba(255,255,255,0.03)"/>
      <circle cx="30" cy="25" r="2" fill="rgba(255,255,255,0.05)"/>
      <circle cx="20" cy="35" r="2" fill="rgba(255,255,255,0.05)"/>
      <path d="M70 75 C75 65, 85 60, 95 65 C105 70, 110 80, 105 90 C100 100, 90 105, 80 100 C70 95, 65 85, 70 75" fill="rgba(255,255,255,0.03)"/>
      <circle cx="80" cy="75" r="2" fill="rgba(255,255,255,0.05)"/>
      <circle cx="90" cy="85" r="2" fill="rgba(255,255,255,0.05)"/>
    </pattern>
  </defs>
  <rect width="200" height="200" fill="#1a1a1a"/>
  <rect width="200" height="200" fill="url(#cat-pattern)"/>
</svg>